<?xml version="1.0" standalone="no"?>
<!DOCTYPE svg PUBLIC "-//W3C//DTD SVG 20010904//EN"
 "http://www.w3.org/TR/2001/REC-SVG-20010904/DTD/svg10.dtd">
<svg version="1.0" xmlns="http://www.w3.org/2000/svg"
 width="737.000000pt" height="130.000000pt" viewBox="0 0 737.000000 130.000000"
 preserveAspectRatio="xMidYMid meet">
<metadata>
Created by potrace 1.16, written by Peter Selinger 2001-2019
</metadata>
<g transform="translate(0.000000,130.000000) scale(0.100000,-0.100000)"
fill="#000000" stroke="none">
<path d="M0 1160 l0 -140 358 0 c264 0 363 -4 382 -13 14 -7 33 -29 44 -51 25
-51 10 -108 -37 -136 -30 -19 -53 -20 -389 -20 l-358 0 0 -400 0 -400 418 0
c463 0 479 2 577 64 64 42 100 84 139 166 29 60 31 73 31 170 0 93 -3 112 -27
162 -14 31 -45 76 -67 101 l-41 44 22 49 c15 34 23 75 26 134 9 179 -79 320
-243 390 -44 19 -69 20 -441 20 l-394 0 0 -140z m844 -680 c18 -17 37 -42 40
-56 9 -36 -10 -90 -41 -114 -24 -19 -40 -20 -294 -20 l-269 0 0 110 0 110 265
0 264 0 35 -30z"/>
<path d="M1967 1258 c-13 -24 -45 -81 -70 -128 l-46 -85 93 -165 c51 -91 181
-326 290 -523 l197 -357 180 0 180 0 -29 53 c-32 55 -504 907 -605 1092 -34
61 -66 120 -71 132 -9 18 -19 23 -53 23 -38 0 -43 -3 -66 -42z"/>
<path d="M3098 1286 c-102 -36 -191 -117 -236 -214 -24 -50 -27 -69 -27 -162
0 -97 2 -110 32 -172 39 -84 103 -147 191 -190 l66 -33 246 -3 c145 -2 256 -7
272 -14 15 -5 37 -26 49 -45 40 -64 6 -142 -70 -163 -20 -5 -126 -10 -236 -10
-182 0 -203 2 -233 20 -21 13 -35 31 -39 50 l-5 30 -139 0 -139 0 0 -33 c0
-135 113 -278 259 -327 60 -20 80 -21 335 -18 314 4 339 9 439 98 208 186 156
540 -96 656 l-62 29 -255 5 c-286 6 -298 8 -326 77 -19 45 -11 83 27 119 l30
29 240 3 240 3 29 -30 c17 -16 30 -39 30 -50 0 -20 5 -21 141 -21 l142 0 -6
55 c-13 123 -94 235 -212 291 l-69 34 -291 0 c-212 -1 -300 -4 -327 -14z"/>
<path d="M4190 650 l0 -651 143 3 142 3 3 648 2 647 -145 0 -145 0 0 -650z"/>
<path d="M4730 1160 l0 -140 580 0 580 0 0 140 0 140 -580 0 -580 0 0 -140z"/>
<path d="M6090 1294 c0 -3 113 -160 250 -347 l250 -341 0 -303 0 -303 145 0
145 0 0 306 0 306 245 334 c135 184 245 339 245 344 0 6 -65 10 -170 10 l-169
0 -26 -32 c-14 -18 -81 -109 -149 -201 l-124 -168 -147 200 -147 201 -174 0
c-96 0 -174 -3 -174 -6z"/>
<path d="M1552 508 c-251 -455 -272 -494 -272 -502 0 -3 80 -5 177 -4 l176 3
148 265 147 265 -35 65 c-88 163 -139 250 -145 250 -3 0 -92 -154 -196 -342z"/>
<path d="M4730 420 l0 -420 140 0 140 0 0 275 0 275 385 0 385 0 0 145 0 145
-525 0 -525 0 0 -420z"/>
</g>
</svg>
